<svg xmlns="http://www.w3.org/2000/svg" viewBox="0 0 32 32" width="32" height="32">
  <defs>
    <linearGradient id="heartbeatGradient" x1="0%" y1="0%" x2="100%" y2="100%">
      <stop offset="0%" style="stop-color:#667eea;stop-opacity:1" />
      <stop offset="100%" style="stop-color:#764ba2;stop-opacity:1" />
    </linearGradient>
  </defs>
  <rect width="32" height="32" rx="8" fill="url(#heartbeatGradient)"/>
  <path d="M16 8c-1.5 0-3 1-4 2.5C11 9 9.5 8 8 8c-2.5 0-4.5 2-4.5 4.5 0 3 2.5 5.5 6 9l6.5 6.5 6.5-6.5c3.5-3.5 6-6 6-9C28.5 10 26.5 8 24 8c-1.5 0-3 1-4 2.5C19 9 17.5 8 16 8z" fill="white" opacity="0.9"/>
  <path d="M8 16h3l2-4 2 8 2-4h3" stroke="white" stroke-width="1.5" fill="none" stroke-linecap="round" stroke-linejoin="round"/>
</svg>